<?xml version="1.0" encoding="UTF-8" standalone="no"?>
<svg
   width="64"
   height="64"
   viewBox="0 0 64 64"
   version="1.1"
   id="svg1"
   sodipodi:docname="nurbs.svg"
   xmlns:inkscape="http://www.inkscape.org/namespaces/inkscape"
   xmlns:sodipodi="http://sodipodi.sourceforge.net/DTD/sodipodi-0.dtd"
   xmlns="http://www.w3.org/2000/svg"
   xmlns:svg="http://www.w3.org/2000/svg">
  <defs
     id="defs1" />
  <sodipodi:namedview
     id="namedview1"
     pagecolor="#ffffff"
     bordercolor="#000000"
     borderopacity="0.25"
     inkscape:showpageshadow="2"
     inkscape:pageopacity="0.0"
     inkscape:pagecheckerboard="0"
     inkscape:deskcolor="#d1d1d1" />
  <path
     style="baseline-shift:baseline;display:inline;overflow:visible;vector-effect:none;fill:#bd93f9;stroke-linecap:round;stroke-linejoin:round;enable-background:accumulate;stop-color:#000000;stop-opacity:1;opacity:1"
     d="m 56.494141,15.041016 a 3,3 0 0 0 -3.453125,2.464843 c -1.480746,8.884477 -3.089166,15.241395 -4.654297,19.328125 -1.565131,4.086731 -3.257247,5.540116 -3.396485,5.589844 -0.06962,0.02486 0.133415,0.08324 -0.154297,-0.07617 -0.287711,-0.159407 -0.905865,-0.683603 -1.58789,-1.630859 -1.364049,-1.894513 -2.955049,-5.32413 -4.402344,-9.666016 -1.594868,-4.784605 -3.585758,-8.555895 -6.273437,-11.125 -2.687679,-2.569105 -6.540863,-3.740385 -10.0625,-2.507812 -3.521638,1.232573 -6.481529,4.238939 -9.306641,8.779297 -2.825112,4.540357 -5.5154554,10.74516 -8.0664063,18.908203 a 3,3 0 0 0 1.96875,3.757812 3,3 0 0 0 3.7578123,-1.96875 c 2.449049,-7.836957 5.008706,-13.632154 7.433594,-17.529297 2.424888,-3.897142 4.714997,-5.765776 6.193359,-6.283203 1.478363,-0.517427 2.375179,-0.313707 3.9375,1.179688 1.562321,1.493395 3.321431,4.472105 4.726563,8.6875 1.552705,4.658114 3.211705,8.478497 5.222656,11.271484 1.005475,1.396494 2.106071,2.575423 3.552734,3.376953 1.446664,0.80153 3.399698,1.078652 5.080079,0.478516 3.360762,-1.200272 5.168646,-4.371887 6.978515,-9.097656 1.809869,-4.72577 3.451449,-11.368852 4.970703,-20.484375 a 3,3 0 0 0 -2.464843,-3.453125 z"
     id="path1" />
</svg>
