<?xml version="1.0" encoding="UTF-8" standalone="no"?>
<svg
   width="64"
   height="64"
   viewBox="0 0 64 64"
   version="1.1"
   id="svg2"
   sodipodi:docname="xline.svg"
   xmlns:inkscape="http://www.inkscape.org/namespaces/inkscape"
   xmlns:sodipodi="http://sodipodi.sourceforge.net/DTD/sodipodi-0.dtd"
   xmlns="http://www.w3.org/2000/svg"
   xmlns:svg="http://www.w3.org/2000/svg">
  <defs
     id="defs2" />
  <sodipodi:namedview
     id="namedview2"
     pagecolor="#ffffff"
     bordercolor="#000000"
     borderopacity="0.25"
     inkscape:showpageshadow="2"
     inkscape:pageopacity="0.0"
     inkscape:pagecheckerboard="0"
     inkscape:deskcolor="#d1d1d1" />
  <!-- Main infinite construction line -->
  <path
     style="baseline-shift:baseline;display:inline;overflow:visible;vector-effect:none;fill:#bd93f9;stroke-linecap:round;enable-background:accumulate;stop-color:#000000;stop-opacity:1;opacity:1"
     d="M 56,5 A 3,3 0 0 0 53.878906,5.8789062 L 5.8789062,53.878906 a 3,3 0 0 0 0,4.242188 3,3 0 0 0 4.2421878,0 l 48,-48 a 3,3 0 0 0 0,-4.2421878 A 3,3 0 0 0 56,5 Z"
     id="path1" />
  <!-- Construction markers -->
  <g
     id="circle1"
     style="opacity:1">
    <path
       style="baseline-shift:baseline;display:inline;overflow:visible;vector-effect:none;fill:#282a36;enable-background:accumulate;stop-color:#000000;stop-opacity:1"
       d="m 25,44 a 5,5 0 0 1 -5,5 5,5 0 0 1 -5,-5 5,5 0 0 1 5,-5 5,5 0 0 1 5,5 z"
       id="path2" />
    <path
       style="baseline-shift:baseline;display:inline;overflow:visible;vector-effect:none;fill:#bd93f9;enable-background:accumulate;stop-color:#000000;stop-opacity:1"
       d="m 20,37.5 c -3.572084,0 -6.5,2.927916 -6.5,6.5 0,3.572084 2.927916,6.5 6.5,6.5 3.572084,0 6.5,-2.927916 6.5,-6.5 0,-3.572084 -2.927916,-6.5 -6.5,-6.5 z m 0,3 c 1.950764,0 3.5,1.549236 3.5,3.5 0,1.950764 -1.549236,3.5 -3.5,3.5 -1.950764,0 -3.5,-1.549236 -3.5,-3.5 0,-1.950764 1.549236,-3.5 3.5,-3.5 z"
       id="path3" />
  </g>
  <g
     id="circle2"
     style="opacity:1">
    <path
       style="baseline-shift:baseline;display:inline;overflow:visible;vector-effect:none;fill:#282a36;enable-background:accumulate;stop-color:#000000;stop-opacity:1"
       d="m 49,20 a 5,5 0 0 1 -5,5 5,5 0 0 1 -5,-5 5,5 0 0 1 5,-5 5,5 0 0 1 5,5 z"
       id="path4" />
    <path
       style="baseline-shift:baseline;display:inline;overflow:visible;vector-effect:none;fill:#bd93f9;enable-background:accumulate;stop-color:#000000;stop-opacity:1"
       d="m 44,13.5 c -3.572084,0 -6.5,2.927916 -6.5,6.5 0,3.572084 2.927916,6.5 6.5,6.5 3.572084,0 6.5,-2.927916 6.5,-6.5 0,-3.572084 -2.927916,-6.5 -6.5,-6.5 z m 0,3 c 1.950764,0 3.5,1.549236 3.5,3.5 0,1.950764 -1.549236,3.5 -3.5,3.5 -1.950764,0 -3.5,-1.549236 -3.5,-3.5 0,-1.950764 1.549236,-3.5 3.5,-3.5 z"
       id="path5" />
  </g>
</svg>
